# AST/ASF file generated using VICON BodyLanguage
# -----------------------------------------------
:version 1.10
:name VICON
:units
  mass 1.0
  length 0.45
  angle deg
:documentation
   .ast/.asf automatically generated from VICON data using
   VICON BodyBuilder and BodyLanguage model FoxedUp or BRILLIANT.MOD
:root
   order TX TY TZ RX RY RZ
   axis XYZ
   position 0 0 0  
   orientation 0 0 0 
:bonedata
  begin
     id 1 
     name lhipjoint
     direction 0.710188 -0.616876 0.339259 
     length 2.5669 
     axis 0 0 0  XYZ
  end
  begin
     id 2 
     name lfemur
     direction 0.34202 -0.939693 0  
     length 7.12796  
     axis 0 0 20  XYZ
    dof rx ry rz
    limits (-160.0 20.0)
           (-70.0 70.0)
           (-60.0 70.0)
  end
  begin
     id 3 
     name ltibia
     direction 0.34202 -0.939693 0   
     length 7.58108   
     axis 0 0 20   XYZ
    dof rx
    limits (-10.0 170.0)
  end
  begin
     id 4 
     name lfoot
     direction 0.0669471 -0.183936 0.980656   
     length 2.17365   
     axis -90 7.62852e-016 20   XYZ
    dof rx rz
    limits (-45.0 90.0)
           (-70.0 20.0)
  end
  begin
     id 5 
     name ltoes
     direction 1.53508e-011 -4.21705e-011 1   
     length 1.09427   
     axis -90 7.62852e-016 20   XYZ
    dof rx
    limits (-90.0 20.0)
  end
  begin
     id 6 
     name rhipjoint
     direction -0.700191 -0.625589 0.34405   
     length 2.53115  
     axis 0 0 0  XYZ 
  end
  begin
     id 7 
     name rfemur
     direction -0.34202 -0.939693 0   
     length 7.33006   
     axis 0 0 -20   XYZ
    dof rx ry rz
    limits (-160.0 20.0)
           (-70.0 70.0)
           (-70.0 60.0)
  end
  begin
     id 8 
     name rtibia
     direction -0.34202 -0.939693 0   
     length 7.64926   
     axis 0 0 -20   XYZ
    dof rx
    limits (-10.0 170.0)
 end
 begin
     id 9 
     name rfoot
     direction -0.0688927 -0.189281 0.979503   
     length 2.20493  
     axis -90 -7.62852e-016 -20   XYZ
    dof rx rz
    limits (-45.0 90.0)
           (-20.0 70.0)
  end
  begin
     id 10 
     name rtoes
     direction -1.53567e-011 -4.21933e-011 1   
     length 1.10919   
     axis -90 -7.62852e-016 -20   XYZ
    dof rx
    limits (-90.0 20.0)
  end
  begin
     id 11 
     name lowerback
     direction -0.0167868 0.989873 -0.140959   
     length 2.14596   
     axis 0 0 0   XYZ
    dof rx ry rz
    limits (-20.0 45.0)
           (-30.0 30.0)
           (-30.0 30.0)
  end
  begin
     id 12 
     name upperback
     direction 0.0129109 0.998033 0.0613525   
     length 2.10457   
     axis 0 0 0   XYZ
    dof rx ry rz
    limits (-20.0 45.0)
           (-30.0 30.0)
           (-30.0 30.0)
  end
  begin
     id 13 
     name thorax
     direction 0.0177047 0.991119 0.131797   
     length 2.17652   
     axis 0 0 0   XYZ
    dof rx ry rz
    limits (-20.0 45.0)
           (-30.0 30.0)
           (-30.0 30.0)
  end
  begin
     id 14 
     name lowerneck
     direction -0.0336893 0.997548 0.0613464   
     length 1.8912   
     axis 0 0 0   XYZ
    dof rx ry rz
    limits (-20.0 45.0)
           (-30.0 30.0)
           (-30.0 30.0)
  end
  begin
     id 15 
     name upperneck
     direction 0.0435909 0.997179 -0.0611028   
     length 1.8829   
     axis 0 0 0   XYZ
    dof rx ry rz
    limits (-20.0 45.0)
           (-30.0 30.0)
           (-30.0 30.0)
  end
  begin
     id 16
     name head
     direction 0.0175076 0.999444 -0.0283782  
     length 1.93197  
     axis 0 0 0   XYZ
    dof rx ry rz
    limits (-20.0 45.0)
           (-30.0 30.0)
           (-30.0 30.0)
  end
  begin
     id 17 
     name lclavicle
     direction 0.919164 0.389875 0.0559876  
     length 3.60004  
     axis 0 0 0   XYZ
    dof ry rz
    limits (-20.0 10.0)
           (0.0 20.0)
  end
  begin
     id 18 
     name lhumerus
     direction 1 -4.48958e-011 6.89191e-027   
     length 5.43301   
     axis 180 -30 -90   XYZ
    dof rx ry rz
    limits (-60.0 90.0)
           (-90.0 90.0)
           (-90.0 90.0)
  end
  begin
     id 19
     name lradius
     direction 1 -4.4897e-011 3.24727e-027   
     length 3.15936   
     axis 180 -30 -90   XYZ
    dof rx
    limits (-10.0 170.0)
  end
  begin
     id 20
     name lwrist
     direction 1 -4.4897e-011 9.00228e-027   
     length 1.57968   
     axis -6.29373e-015 90 90   XYZ
    dof ry
    limits (-180.0 0.0)
 end
  begin
     id 21 
     name lhand
     direction 1 -4.48968e-011 1.80042e-026   
     length 0.712827   
     axis -1.14882e-014 90 90   XYZ
    dof rx rz
    limits (-90.0 90.0)
           (-45.0 45.0)
  end
  begin
     id 22 
     name lfingers
     direction 1 -4.49019e-011 3.60267e-026   
     length 0.574699   
     axis -2.29769e-014 90 90   XYZ
    dof rx
    limits (0.0 90.0)
  end
  begin
     id 23
     name lthumb
     direction 0.707107 -6.3498e-011 0.707107   
     length 0.825157   
     axis -90 45 5.37419e-014   XYZ
    dof rx rz
    limits (-45.0 45.0)
           (-45.0 45.0)
  end
  begin
     id 24 
     name rclavicle
     direction -0.890334 0.455305 -0.00132111   
     length 3.51494  
     axis 0 0 0   XYZ 
    dof ry rz
    limits (-10.0 20.0)
           (-20.0 0.0)
  end
  begin
     id 25 
     name rhumerus
     direction -1 -4.48967e-011 5.07175e-028  
     length 5.34194   
     axis 180 30 90   XYZ
    dof rx ry rz
    limits (-90.0 60.0)
           (-90.0 90.0)
           (-90.0 90.0)
  end
  begin
     id 26 
     name rradius
     direction -1 -4.48955e-011 3.30467e-027   
     length 3.19351   
     axis 180 30 90   XYZ
    dof rx
    limits (-10.0 170.0)
  end
  begin
     id 27 
     name rwrist
     direction -1 -4.48968e-011 9.00208e-027   
     length 1.59676   
     axis -6.29373e-015 -90 -90   XYZ
    dof ry
    limits (-180.0 0.0)
  end
  begin
     id 28
     name rhand
     direction -1 -4.49e-011 1.80099e-026   
     length 0.743862   
     axis -1.14882e-014 -90 -90   XYZ
    dof rx rz
    limits (-90.0 90.0)
           (-45.0 45.0)
  end
  begin
     id 29
     name rfingers
     direction -1 -4.49009e-011 3.6023e-026   
     length 0.599721   
     axis -2.29769e-014 -90 -90   XYZ
    dof rx
    limits (0.0 90.0)
  end
  begin
     id 30
     name rthumb
     direction -0.707107 -6.35025e-011 0.707107   
     length 0.861083   
     axis -90 -45 -5.37419e-014   XYZ
    dof rx rz
    limits (-45.0 45.0)
           (-45.0 45.0)
  end
:hierarchy
  begin
    root lhipjoint rhipjoint lowerback
    lhipjoint lfemur
    lfemur ltibia
    ltibia lfoot
    lfoot ltoes
    rhipjoint rfemur
    rfemur rtibia
    rtibia rfoot
    rfoot rtoes
    lowerback upperback
    upperback thorax
    thorax lowerneck lclavicle rclavicle
    lowerneck upperneck
    upperneck head
    lclavicle lhumerus
    lhumerus lradius
    lradius lwrist
    lwrist lhand lthumb
    lhand lfingers
    rclavicle rhumerus
    rhumerus rradius
    rradius rwrist
    rwrist rhand rthumb
    rhand rfingers
  end

#!OML:ASF H:\Martial Arts Walks\Project 1\Capture day 1\Session 1\male.ASF
:FULLY-SPECIFIED
:DEGREES
1951
root -1.25707 13.1044 -24.7276 364.874 -1.5746 -1.46502
lowerback 12.184 -1.16963 -4.65606
upperback -3.48492 -2.18384 1.46992
thorax -10.4142 -0.687613 4.68334
lowerneck -4.44476 8.82551 3.57178
upperneck 7.42418 11.4961 0.764891
head 3.34139 5.82931 0.147296
rclavicle -7.95139e-015 -6.36111e-015
rhumerus -83.1457 17.5046 -97.4334
rradius 106.677
rwrist -75.0841
rhand -15.3776 -23.572
rfingers 7.12502
rthumb 10.8006 -53.2743
lclavicle -7.95139e-015 -6.36111e-015
lhumerus 59.3438 12.3749 80.3108
lradius 78.0974
lwrist 69.6081
lhand -8.87672 374.536
lfingers 7.12502
lthumb 17.0651 403.807
rfemur -47.8565 -15.9779 3.04638
rtibia 88.4914
rfoot -35.1708 1.11425
rtoes -21.0889
lfemur -47.1125 30.1323 -1.25121
ltibia 87.2117
lfoot -35.4416 3.00016
ltoes -20.0801
1952
root -1.25217 13.0764 -24.7276 364.865 -1.60977 -1.488
lowerback 12.1685 -1.17832 -4.63741
upperback -3.50781 -2.18963 1.49626
thorax -10.4295 -0.689597 4.70273
lowerneck -4.42908 8.84097 3.60188
upperneck 7.49334 11.5156 0.757758
head 3.36539 5.84001 0.142839
rclavicle -2.58917e-014 -2.16675e-014
rhumerus -83.1386 17.5086 -97.4543
rradius 106.592
rwrist -75.3072
rhand -15.5161 -23.5828
rfingers 7.12502
rthumb 10.6669 -53.2921
lclavicle -2.58917e-014 -2.16675e-014
lhumerus 59.3858 12.4334 80.3618
lradius 77.8342
lwrist 69.6864
lhand -8.9002 374.496
lfingers 7.12502
lthumb 17.0425 403.768
rfemur -48.019 -16.0872 3.02817
rtibia 88.7802
rfoot -35.2593 1.18205
rtoes -20.8665
lfemur -47.2599 30.2604 -1.20056
ltibia 87.5319
lfoot -35.5814 3.00552
ltoes -20.0575
1953
root -1.24733 13.0478 -24.7263 364.824 -1.70982 -1.4363
lowerback 12.1531 -1.15618 -4.69244
upperback -3.49897 -2.16853 1.4909
thorax -10.4116 -0.676965 4.72293
lowerneck -4.49822 8.85906 3.60257
upperneck 7.58616 11.5323 0.810975
head 3.4075 5.85079 0.167154
rclavicle -1.45299e-014 -7.15625e-015
rhumerus -83.0768 17.4961 -97.4684
rradius 106.5
rwrist -75.554
rhand -15.5675 -23.6852
rfingers 7.12502
rthumb 10.6173 -53.397
lclavicle -1.45299e-014 -7.15625e-015
lhumerus 59.4776 12.4942 80.4021
lradius 77.5991
lwrist 69.8854
lhand -8.92733 374.672
lfingers 7.12502
lthumb 17.0164 403.947
rfemur -48.1711 -16.1455 2.90368
rtibia 89.0657
rfoot -35.3809 1.20068
rtoes -20.9784
lfemur -47.3141 30.4233 -1.1992
ltibia 87.8472
lfoot -35.707 3.16217
ltoes -20.1108
1954
root -1.24277 13.0185 -24.7267 364.815 -1.7356 -1.44227
lowerback 12.1275 -1.17793 -4.67885
upperback -3.51415 -2.19291 1.5083
thorax -10.4104 -0.688665 4.73844
lowerneck -4.48486 8.87192 3.61559
upperneck 7.64075 11.5485 0.816746
head 3.42476 5.85978 0.168916
rclavicle 2.3177e-014 -1.86858e-014
rhumerus -83.0947 17.528 -97.5035
rradius 106.47
rwrist -75.743
rhand -15.6004 -23.6875
rfingers 7.12502
rthumb 10.5857 -53.4009
lclavicle 2.3177e-014 -1.86858e-014
lhumerus 59.5351 12.582 80.4379
lradius 77.3868
lwrist 69.9732
lhand -8.80639 374.563
lfingers 7.12502
lthumb 17.1328 403.827
rfemur -48.323 -16.2541 2.84626
rtibia 89.3424
rfoot -35.512 1.26125
rtoes -21.0333
lfemur -47.4763 30.5357 -1.16956
ltibia 88.1691
lfoot -35.7746 3.2292
ltoes -19.9696
1955
root -1.23884 12.99 -24.7266 364.797 -1.80651 -1.47026
lowerback 12.1158 -1.16243 -4.63269
upperback -3.52944 -2.16396 1.51238
thorax -10.425 -0.676802 4.71085
lowerneck -4.47409 8.8538 3.67726
upperneck 7.69193 11.5226 0.782594
head 3.44695 5.84772 0.148383
rclavicle 3.43897e-014 -1.23246e-014
rhumerus -83.0846 17.4534 -97.5283
rradius 106.418
rwrist -75.7799
rhand -15.6178 -23.6805
rfingers 7.12502
rthumb 10.5689 -53.3948
lclavicle 3.43897e-014 -1.23246e-014
lhumerus 59.5871 12.6006 80.4795
lradius 77.1856
lwrist 69.9999
lhand -8.88238 374.676
lfingers 7.12502
lthumb 17.0597 403.947
rfemur -48.4701 -16.2981 2.81766
rtibia 89.6032
rfoot -35.6508 1.32881
rtoes -21.0793
lfemur -47.5967 30.7046 -1.09687
ltibia 88.4926
lfoot -35.9461 3.23625
ltoes -20.0975
1956
root -1.23415 12.9622 -24.726 364.805 -1.85138 -1.4144
lowerback 12.0932 -1.15472 -4.65436
upperback -3.54769 -2.15797 1.4975
thorax -10.4327 -0.67249 4.70531
lowerneck -4.52222 8.83596 3.65321
upperneck 7.74499 11.4943 0.830848
head 3.46919 5.8352 0.170314
rclavicle 2.56556e-014 -1.53064e-014
rhumerus -83.0664 17.4043 -97.5372
rradius 106.389
rwrist -75.7483
rhand -15.4788 -23.6233
rfingers 7.12502
rthumb 10.7029 -53.3306
lclavicle 2.56556e-014 -1.53064e-014
lhumerus 59.6528 12.6227 80.537
lradius 77.0142
lwrist 69.8907
lhand -8.64526 374.568
lfingers 7.12502
lthumb 17.2879 403.819
rfemur -48.6396 -16.4211 2.69273
rtibia 89.8706
rfoot -35.7712 1.3919
rtoes -21.1451
lfemur -47.7482 30.8062 -1.14117
ltibia 88.8038
lfoot -36.0631 3.26072
ltoes -19.8926
1957
root -1.2306 12.935 -24.7263 364.801 -1.88312 -1.42023
lowerback 12.0165 -1.144 -4.60474
upperback -3.53059 -2.13206 1.49257
thorax -10.3727 -0.666168 4.66256
lowerneck -4.50676 8.75772 3.87079
upperneck 7.72688 11.3964 0.550797
head 3.49324 5.78188 0.0413276
rclavicle 3.10601e-014 -5.36719e-015
rhumerus -83.0643 17.3318 -97.5162
rradius 106.488
rwrist -75.6858
rhand -15.5136 -23.6501
rfingers 7.12502
rthumb 10.6694 -53.3592
lclavicle 3.10601e-014 -5.36719e-015
lhumerus 59.7644 12.6328 80.6158
lradius 76.758
lwrist 69.7506
lhand -8.59277 374.365
lfingers 7.12502
lthumb 17.3384 403.612
rfemur -48.7924 -16.531 2.64685
rtibia 90.1345
rfoot -35.9064 1.43868
rtoes -21.3118
lfemur -47.9091 30.9196 -1.1167
ltibia 89.11
lfoot -36.1728 3.34375
ltoes -20.0379
1958
root -1.22711 12.9079 -24.7258 364.817 -1.96061 -1.39753
lowerback 12.0193 -1.13654 -4.64538
upperback -3.57359 -2.12821 1.5078
thorax -10.4213 -0.658446 4.70307
lowerneck -4.49226 8.86471 3.67097
upperneck 7.75535 11.532 0.840061
head 3.46826 5.85487 0.171093
rclavicle 1.71514e-014 1.64991e-014
rhumerus -83.0204 17.3126 -97.5172
rradius 106.35
rwrist -75.5542
rhand -15.2437 -23.4962
rfingers 7.12502
rthumb 10.9297 -53.1917
lclavicle 1.71514e-014 1.64991e-014
lhumerus 59.7499 12.6881 80.6338
lradius 76.6989
lwrist 69.4939
lhand -8.73444 374.454
lfingers 7.12502
lthumb 17.2021 403.713
rfemur -48.9963 -16.6136 2.58122
rtibia 90.4007
rfoot -36.0035 1.45781
rtoes -21.5489
lfemur -48.0445 31.0725 -1.11676
ltibia 89.4071
lfoot -36.2483 3.50378
ltoes -20.138
1959
root -1.22381 12.8822 -24.7257 364.787 -1.90979 -1.42443
lowerback 12.0546 -1.16767 -4.59111
upperback -3.57245 -2.16074 1.52827
thorax -10.4379 -0.676155 4.70262
lowerneck -4.55918 8.81412 3.65603
upperneck 7.81614 11.4626 0.836573
head 3.50049 5.82021 0.174496
rclavicle 1.29148e-014 9.14409e-015
rhumerus -83.0246 17.3057 -97.5133
rradius 106.385
rwrist -75.4982
rhand -15.1955 -23.4135
rfingers 7.12502
rthumb 10.9762 -53.1066
lclavicle 1.29148e-014 9.14409e-015
lhumerus 59.8169 12.7323 80.7113
lradius 76.5557
lwrist 69.2978
lhand -8.66605 374.137
lfingers 7.12502
lthumb 17.2679 403.389
rfemur -49.0662 -16.7821 2.55032
rtibia 90.6497
rfoot -36.096 1.53121
rtoes -21.4435
lfemur -48.2012 31.1018 -1.06228
ltibia 89.705
lfoot -36.3712 3.52165
ltoes -20.1955
1960
root -1.22089 12.8548 -24.7258 364.777 -1.90844 -1.46844
lowerback 12.0714 -1.18042 -4.54099
upperback -3.58699 -2.16831 1.55299
thorax -10.4637 -0.680843 4.70391
lowerneck -4.55669 8.83532 3.60811
upperneck 7.84662 11.4877 0.920626
head 3.50182 5.83483 0.210721
rclavicle 2.36678e-015 4.17448e-015
rhumerus -82.9834 17.2982 -97.4995
rradius 106.345
rwrist -75.5048
rhand -15.2988 -23.3758
rfingers 7.12502
rthumb 10.8766 -53.0741
lclavicle 2.36678e-015 4.17448e-015
lhumerus 59.8821 12.785 80.7642
lradius 76.3937
lwrist 69.2459
lhand -8.86293 374.434
lfingers 7.12502
lthumb 17.0784 403.703
rfemur -49.1952 -16.9008 2.55143
rtibia 90.907
rfoot -36.2204 1.4937
rtoes -21.6848
lfemur -48.3628 31.1959 -0.98582
ltibia 90.0108
lfoot -36.4789 3.59834
ltoes -20.3241
